<svg width="225" height="225" viewBox="0 0 225 225" fill="none" xmlns="http://www.w3.org/2000/svg">
<g filter="url(#filter0_d_8901_4392)">
<rect x="23" y="15" width="179" height="179" rx="14" fill="#FEFEFF"/>
</g>
<path d="M166.315 80.9691C161.429 68.6684 146.38 61.2918 133.634 66.1734C119.085 71.7453 123.909 94.6446 110.694 99.2751C103.555 101.776 93.002 92.4328 85.7897 90.9999C72.4993 88.3598 60.4678 97.6391 57.5051 110.489C54.4826 123.599 59.3304 141.109 73.8866 144.667C91.2259 148.906 100.258 133.482 114.804 129.053C129.73 124.509 146.327 135.242 158.685 122.183C167.814 112.534 171.152 93.1494 166.315 80.9691Z" fill="url(#paint0_linear_8901_4392)"/>
<path opacity="0.11" d="M129.798 61.5171H84.7835C82.2492 61.5171 80.1947 63.5501 80.1947 66.0579V80.9131C76.6038 81.9282 73.9749 85.1907 73.9749 89.0613C73.9749 92.932 76.604 96.1947 80.1947 97.2096V152.981C80.1947 155.489 82.2492 157.522 84.7835 157.522H129.798C132.332 157.522 134.387 155.489 134.387 152.981V66.0579C134.387 63.5501 132.332 61.5171 129.798 61.5171Z" fill="#3A85F4"/>
<path d="M139.631 61.5178V148.441C139.631 150.949 137.576 152.982 135.042 152.982H90.0276C87.4932 152.982 85.4387 150.949 85.4387 148.441V61.5178C85.4387 59.01 87.4932 56.9771 90.0276 56.9771H135.042C137.576 56.9771 139.631 59.01 139.631 61.5178Z" fill="white"/>
<path d="M139.631 68.6535V61.5178C139.631 59.01 137.576 56.9771 135.042 56.9771H90.0276C87.4932 56.9771 85.4387 59.01 85.4387 61.5178V68.6533L139.631 68.6535Z" fill="#D4EBFF"/>
<path d="M93.1052 64.2814C93.7799 64.2814 94.3267 63.7403 94.3267 63.0727C94.3267 62.4052 93.7799 61.864 93.1052 61.864C92.4306 61.864 91.8837 62.4052 91.8837 63.0727C91.8837 63.7403 92.4306 64.2814 93.1052 64.2814Z" fill="white"/>
<path d="M97.4581 64.2814C98.1327 64.2814 98.6796 63.7403 98.6796 63.0727C98.6796 62.4052 98.1327 61.864 97.4581 61.864C96.7835 61.864 96.2366 62.4052 96.2366 63.0727C96.2366 63.7403 96.7835 64.2814 97.4581 64.2814Z" fill="white"/>
<path d="M101.805 61.864C102.48 61.864 103.027 62.4052 103.027 63.0727C103.027 63.7402 102.48 64.2814 101.805 64.2814C101.13 64.2814 100.583 63.7402 100.583 63.0727C100.583 62.4052 101.13 61.864 101.805 61.864Z" fill="white"/>
<path d="M85.0713 94.232C89.8073 94.232 93.6466 90.433 93.6466 85.7466C93.6466 81.0603 89.8073 77.2612 85.0713 77.2612C80.3354 77.2612 76.4961 81.0603 76.4961 85.7466C76.4961 90.433 80.3354 94.232 85.0713 94.232Z" fill="#D4EBFF"/>
<path d="M111.385 110.875V130.954C111.385 131.863 110.885 132.6 110.268 132.6H104.682C104.065 132.6 103.565 131.863 103.565 130.954V110.875C103.565 109.966 104.065 109.229 104.682 109.229H110.268C110.885 109.229 111.385 109.966 111.385 110.875Z" fill="#D4EBFF"/>
<path d="M99.958 114.217V131.207C99.958 131.976 99.4577 132.6 98.8409 132.6H93.2555C92.6386 132.6 92.1384 131.976 92.1384 131.207V114.217C92.1384 113.448 92.6386 112.824 93.2555 112.824H98.8409C99.4577 112.824 99.958 113.448 99.958 114.217Z" fill="#D4EBFF"/>
<path d="M122.212 104.316V131.519C122.212 132.447 121.712 133.199 121.095 133.199H115.509C114.892 133.199 114.392 132.447 114.392 131.519V104.316C114.392 103.389 114.892 102.637 115.509 102.637H121.095C121.712 102.637 122.212 103.389 122.212 104.316Z" fill="#D4EBFF"/>
<path d="M133.039 98.6467V131.197C133.039 131.971 132.539 132.6 131.922 132.6H126.337C125.72 132.6 125.219 131.971 125.219 131.197V98.6467C125.219 97.8719 125.72 97.2437 126.337 97.2437H131.922C132.539 97.2437 133.039 97.8719 133.039 98.6467Z" fill="#D4EBFF"/>
<path d="M104.522 76.2626H120.583C121.108 76.2626 121.591 75.9147 121.694 75.4053C121.835 74.7103 121.301 74.1003 120.624 74.1003H104.481C103.804 74.1003 103.271 74.7103 103.411 75.4053C103.515 75.9147 103.997 76.2626 104.522 76.2626Z" fill="#5A5A5A"/>
<path d="M113.575 83.941H124.032C124.374 83.941 124.689 83.6244 124.756 83.1607C124.848 82.5281 124.5 81.9729 124.059 81.9729H113.548C113.107 81.9729 112.76 82.5281 112.852 83.1607C112.919 83.6244 113.233 83.941 113.575 83.941Z" fill="#5A5A5A"/>
<path d="M98.9938 80.0048H114.244C114.743 80.0048 115.201 79.6881 115.299 79.2244C115.433 78.5918 114.927 78.0366 114.283 78.0366H98.9548C98.3116 78.0366 97.8053 78.5918 97.9389 79.2244C98.0368 79.6881 98.4952 80.0048 98.9938 80.0048Z" fill="#5A5A5A"/>
<path d="M117.926 80.0048H126.641C126.926 80.0048 127.188 79.6881 127.244 79.2244C127.32 78.5918 127.031 78.0366 126.663 78.0366H117.904C117.536 78.0366 117.247 78.5918 117.323 79.2244C117.379 79.6881 117.641 80.0048 117.926 80.0048Z" fill="#5A5A5A"/>
<path d="M101.518 83.941H110.233C110.517 83.941 110.779 83.6244 110.835 83.1607C110.912 82.5281 110.622 81.9729 110.255 81.9729H101.496C101.128 81.9729 100.839 82.5281 100.915 83.1607C100.971 83.6244 101.233 83.941 101.518 83.941Z" fill="#5A5A5A"/>
<path d="M135.253 154.062H123.149C123.089 154.062 123.03 154.04 122.988 154C121.988 153.057 122.648 151.9 123.581 151.9H134.452C136.707 151.9 138.535 150.091 138.535 147.86V92.3238C138.535 92.2652 138.557 92.2068 138.598 92.1644C139.551 91.1752 140.72 91.8284 140.72 92.7514V148.651C140.721 151.64 138.273 154.062 135.253 154.062Z" fill="#3A85F4"/>
<path d="M112.588 146.829C112.298 146.829 112.02 146.715 111.815 146.512L110.541 145.249C110.114 144.827 110.115 144.142 110.542 143.72C110.969 143.299 111.661 143.299 112.087 143.722L112.588 144.218L113.089 143.722C113.515 143.299 114.207 143.298 114.634 143.72C115.061 144.142 115.062 144.827 114.635 145.249L113.361 146.512C113.157 146.715 112.878 146.829 112.588 146.829Z" fill="#3A85F4"/>
<path d="M135.04 55.895H90.026C86.8884 55.895 84.3446 58.4121 84.3446 61.5169V76.1107C79.3076 76.4344 75.309 80.5898 75.309 85.6545C75.309 90.7192 79.3076 94.8749 84.3446 95.1983V148.733C84.3446 151.676 86.7557 154.062 89.7299 154.062H117.795C117.854 154.062 117.913 154.04 117.956 154C118.956 153.057 118.296 151.9 117.363 151.9H90.026C88.095 151.9 86.5298 150.351 86.5298 148.44V95.1278C91.1221 94.3907 94.64 90.4409 94.64 85.6915C94.64 80.9421 91.1221 76.9925 86.5298 76.2554V69.7335H138.537V86.6213C138.537 87.1413 138.889 87.6194 139.404 87.721C140.106 87.8594 140.722 87.3333 140.722 86.6656V61.4983C140.722 58.4087 138.173 55.895 135.04 55.895ZM92.5538 85.7466C92.5538 89.8294 89.1972 93.1509 85.0712 93.1509C80.9451 93.1509 77.5885 89.8294 77.5885 85.7466C77.5885 81.6638 80.9451 78.3424 85.0712 78.3424C89.1972 78.3424 92.5538 81.6638 92.5538 85.7466ZM138.536 67.5713H86.5298V61.5169C86.5298 59.6061 88.095 58.0573 90.026 58.0573H135.04C136.971 58.0573 138.537 59.6061 138.537 61.5169L138.536 67.5713Z" fill="#3A85F4"/>
<path d="M88.9369 105.505H105.995C107.019 105.505 113.972 99.7768 114.695 99.1491L118.088 96.2079C118.33 95.9989 118.65 95.8838 118.991 95.8838H128.808C129.832 95.8838 130.814 95.5311 131.538 94.9036L135.692 91.3026C135.933 91.0935 136.26 90.976 136.602 90.976L142.119 90.976C142.738 90.976 143.306 90.617 143.428 90.0914C143.594 89.3744 142.966 88.7451 142.168 88.7451L136.58 88.7451C135.556 88.7451 134.574 89.0976 133.85 89.7251L129.696 93.3261C129.455 93.5352 129.127 93.6527 128.786 93.6527H119.003C117.979 93.6527 116.998 94.0052 116.274 94.6328L112.892 97.5645C112.65 97.7738 106.333 103.275 105.991 103.275H88.8883C88.0907 103.275 87.4622 103.904 87.6282 104.621C87.7499 105.146 88.3185 105.505 88.9369 105.505Z" fill="#3A85F4"/>
<path d="M149.039 72.3283H148.37V71.6664C148.37 71.1468 148.018 70.6692 147.504 70.5669C146.801 70.4275 146.185 70.9555 146.185 71.6256V72.3283H145.516C144.991 72.3283 144.508 72.6762 144.405 73.1857C144.264 73.8806 144.797 74.4906 145.475 74.4906H146.185V75.1524C146.185 75.672 146.536 76.1497 147.051 76.252C147.754 76.3914 148.37 75.8634 148.37 75.1933V74.4906H149.08C149.757 74.4906 150.291 73.8806 150.15 73.1857C150.047 72.6762 149.564 72.3283 149.039 72.3283Z" fill="#D4EBFF"/>
<path d="M155.376 131.791H154.707V131.129C154.707 130.609 154.356 130.132 153.841 130.029C153.138 129.89 152.522 130.418 152.522 131.088V131.791H151.853C151.328 131.791 150.845 132.139 150.742 132.648C150.601 133.343 151.135 133.953 151.812 133.953H152.522V134.615C152.522 135.134 152.874 135.612 153.388 135.714C154.091 135.854 154.707 135.326 154.707 134.656V133.953H155.417C156.095 133.953 156.628 133.343 156.487 132.648C156.384 132.139 155.901 131.791 155.376 131.791Z" fill="#D4EBFF"/>
<path d="M150.305 122.856C149.987 122.856 149.667 122.808 149.354 122.712C148.54 122.462 147.873 121.913 147.477 121.166C147.08 120.419 147.001 119.564 147.254 118.759C147.507 117.954 148.062 117.294 148.817 116.902C149.571 116.51 150.435 116.432 151.249 116.682C152.063 116.932 152.729 117.481 153.126 118.228C153.522 118.975 153.601 119.829 153.348 120.635C153.095 121.44 152.54 122.1 151.786 122.492C151.321 122.733 150.815 122.856 150.305 122.856ZM150.302 118.702C149.873 118.702 149.475 118.975 149.341 119.401C149.261 119.655 149.286 119.925 149.411 120.16C149.536 120.395 149.746 120.568 150.003 120.647C150.532 120.81 151.097 120.517 151.262 119.992C151.342 119.739 151.317 119.469 151.192 119.234C151.067 118.999 150.857 118.825 150.6 118.747C150.501 118.716 150.401 118.702 150.302 118.702Z" fill="#D4EBFF"/>
<path d="M70.2696 108.898C69.951 108.898 69.6311 108.85 69.3182 108.754C68.5044 108.503 67.8377 107.954 67.4413 107.208C67.0447 106.461 66.9659 105.606 67.2189 104.801C67.4719 103.996 68.0268 103.336 68.7813 102.944C69.5356 102.551 70.3994 102.473 71.2134 102.723C72.8933 103.24 73.8354 105.014 73.3129 106.676C73.0598 107.481 72.505 108.141 71.7505 108.533C71.2857 108.775 70.7798 108.898 70.2696 108.898ZM70.2644 104.743C70.1035 104.743 69.944 104.782 69.7976 104.858C69.5599 104.981 69.3848 105.189 69.3051 105.443C69.1405 105.967 69.4373 106.526 69.9667 106.689C70.2235 106.768 70.4956 106.743 70.7333 106.62C70.971 106.496 71.1461 106.288 71.2258 106.034C71.3904 105.51 71.0936 104.951 70.5639 104.788C70.4656 104.758 70.3649 104.743 70.2644 104.743Z" fill="#81C2FF"/>
<path d="M78.0809 114.917C77.7678 114.917 77.4496 114.871 77.1354 114.775C75.4552 114.258 74.5134 112.485 75.0359 110.822C75.2889 110.017 75.8438 109.357 76.5983 108.965C77.3528 108.572 78.2166 108.494 79.0304 108.745C79.8444 108.995 80.5108 109.544 80.9074 110.291C81.304 111.037 81.3829 111.892 81.1299 112.697C80.7053 114.049 79.4414 114.917 78.0809 114.917ZM78.0818 110.764C77.921 110.764 77.7615 110.803 77.6151 110.879C77.3773 111.002 77.2023 111.21 77.1225 111.464C76.958 111.988 77.2547 112.547 77.7842 112.71C78.313 112.872 78.8783 112.579 79.0433 112.055C79.123 111.801 79.0981 111.532 78.9731 111.297C78.8481 111.062 78.6379 110.888 78.3814 110.809C78.2831 110.779 78.1821 110.764 78.0818 110.764Z" fill="#81C2FF"/>
<path d="M83.8401 82.2989C84.2833 80.9491 86.196 80.9491 86.6392 82.2989C86.8364 82.8994 87.4024 83.3064 88.0344 83.3064C89.4468 83.3064 90.0515 85.1169 88.9047 85.9414C88.3896 86.3117 88.1743 86.9738 88.3722 87.5765C88.8128 88.9184 87.2532 90.0239 86.1064 89.1994C85.5925 88.83 84.8868 88.83 84.3729 89.1994C83.2261 90.0239 81.6665 88.9184 82.1072 87.5765C82.3051 86.9738 82.0897 86.3117 81.5746 85.9414C80.4278 85.1169 81.0325 83.3064 82.445 83.3064C83.077 83.3064 83.6429 82.8994 83.8401 82.2989Z" fill="white"/>
<defs>
<filter id="filter0_d_8901_4392" x="0" y="0" width="225" height="225" filterUnits="userSpaceOnUse" color-interpolation-filters="sRGB">
<feFlood flood-opacity="0" result="BackgroundImageFix"/>
<feColorMatrix in="SourceAlpha" type="matrix" values="0 0 0 0 0 0 0 0 0 0 0 0 0 0 0 0 0 0 127 0" result="hardAlpha"/>
<feOffset dy="8"/>
<feGaussianBlur stdDeviation="11.5"/>
<feColorMatrix type="matrix" values="0 0 0 0 0.170833 0 0 0 0 0.5025 0 0 0 0 1 0 0 0 0.2 0"/>
<feBlend mode="normal" in2="BackgroundImageFix" result="effect1_dropShadow_8901_4392"/>
<feBlend mode="normal" in="SourceGraphic" in2="effect1_dropShadow_8901_4392" result="shape"/>
</filter>
<linearGradient id="paint0_linear_8901_4392" x1="107.492" y1="81.6712" x2="119.056" y2="137.507" gradientUnits="userSpaceOnUse">
<stop stop-color="#77C2FE" stop-opacity="0"/>
<stop offset="1" stop-color="#77C2FE"/>
</linearGradient>
</defs>
</svg>
